# xmcd CD database file
#
# Track frame offsets:
#	150
#	16565
#	35475
#	57722
#	81689
#
# Disc length: 1380 seconds
#
# Revision: 0
# Processed by: cddbd v1.5.2PL0 Copyright (c) Steve Scherf et al.
# Submitted via: CDex 1.70beta2
#
DISCID=3c056205
DTITLE=VÁCZI ESZTER ÉS A SZÖRP - A JACOBS JAZZ VÁLOGATÁSA
DYEAR=1900
DGENRE=Jazz
TTITLE0=KESRESD VELEM
TTITLE1=FRESH OF THE WIRE
TTITLE2=BEST DAYS
TTITLE3=CHANGE
TTITLE4=BLINOFOLD ON HIS HEART
EXTD=
EXTT0=
EXTT1=
EXTT2=
EXTT3=
EXTT4=
PLAYORDER=
